<?xml version="1.0" encoding="UTF-8"?>
<svg width="669px" height="377px" viewBox="0 0 669 377" version="1.1" xmlns="http://www.w3.org/2000/svg" xmlns:xlink="http://www.w3.org/1999/xlink">
    <g id="Page-1" stroke="none" stroke-width="1" fill="none" fill-rule="evenodd">
        <g id="23">
            <path d="M334.5,376 C224.7,376 114.9,376 5.1,376.1 C1.9,376.1 0.9,375.7 0.9,372.1 C1,249.6 1,127.2 0.9,4.7 C0.9,1.4 1.8,0.9 4.8,0.9 C224.6,1 444.4,1 664.2,0.9 C667.9,0.9 668.1,2.1 668.1,5.2 C668,127.5 668,249.8 668.1,372.1 C668.1,375.7 667.2,376.1 663.9,376.1 C554.1,376 444.3,376 334.5,376 Z" id="Shape" fill="white"></path>
            <path d="M255.5,293 C234.7,293 213.8,292.9 193,293.1 C189.2,293.1 187.7,292.4 187.9,288.2 C188.3,281.2 188.2,274.2 187.9,267.2 C187.8,263.4 189,260.7 191.7,258 C219.1,231 246.4,203.8 273.6,176.7 C278.6,171.7 282.7,166.1 285.4,159.5 C290.7,146.5 288.5,134.4 279.2,124.2 C270.1,114.2 258.1,112.2 245.7,116.2 C232.8,120.3 225.6,129.9 223.8,143.3 C223.3,146.8 222.6,148.5 218.5,148.3 C209.9,147.9 201.2,148 192.5,148.3 C188.7,148.4 187.7,147.2 187.8,143.5 C189,112.1 213.4,85.6 244.6,82 C265.6,79.6 285.2,82.7 301.9,96.6 C325.4,116 331,152.2 315.5,180.5 C309,192.4 299.4,201.6 289.5,210.6 C273.3,225.5 257.2,240.4 241.1,255.4 C239.9,256.5 237.7,257.5 238.3,259.2 C239,261.4 241.5,260.2 243.2,260.2 C268.4,260.3 293.5,260.4 318.7,260.2 C323,260.2 324.1,261.5 324,265.6 C323.7,272.9 323.7,280.3 324,287.6 C324.2,291.9 323.2,293.3 318.6,293.2 C297.5,292.8 276.5,293 255.5,293 Z" id="Shape" fill="#313B89"></path>
            <path d="M362.6,231 C366.9,231 371.3,231.3 375.6,230.9 C379.3,230.6 380.4,231.9 380.9,235.5 C382.8,249.7 392.3,260.2 405.7,262.6 C416.5,264.5 426.6,262.2 435.2,255.1 C451.9,241.3 447.6,215.3 427.4,206.9 C420.3,203.9 412.8,203.7 405.3,204 C401.9,204.2 400.6,203.2 400.7,199.6 C400.9,191.3 400.9,182.9 400.7,174.6 C400.7,171.8 401.6,170.8 404.4,170.9 C410.2,171 416.1,171.3 421.8,169.8 C434.6,166.6 442.7,156.4 442.7,143.4 C442.7,130.4 432.8,118.2 419.6,115 C401.4,110.6 383.4,123.8 382,143 C381.7,147.3 380.2,148.3 376.3,148.2 C367.6,148 359,148 350.3,148.2 C346.7,148.3 345.8,147.1 346,143.6 C347.7,105.9 376.4,78.9 416.8,81.4 C437.8,82.7 455.5,90.8 467.9,108.4 C483.2,130 481.9,158.9 465.2,177.1 C462.4,180.2 459.2,182.8 455.6,185 C452.9,186.7 452.5,187.7 455.6,189.7 C484.9,209 490.3,247.9 467.3,274.5 C457.4,286 444.3,291.8 429.7,294.4 C414.7,297.1 399.9,296.7 385.3,291.9 C360.5,283.6 344.4,260.5 344.8,234.3 C344.8,231.5 345.7,230.9 348.2,230.9 C353,231.1 357.8,231 362.6,231 Z" id="Shape" fill="#313B89"></path>
        </g>
    </g>
</svg>
