<?xml version="1.0" encoding="UTF-8" standalone="no"?>
<svg width="114px" height="25px" viewBox="0 0 114 25" version="1.1" xmlns="http://www.w3.org/2000/svg" xmlns:xlink="http://www.w3.org/1999/xlink" xmlns:sketch="http://www.bohemiancoding.com/sketch/ns">
    <!-- Generator: Sketch 3.5.2 (25235) - http://www.bohemiancoding.com/sketch -->
    <title>agilebits-logo-simple</title>
    <desc>Created with Sketch.</desc>
    <defs></defs>
    <g id="Page-1" stroke="none" stroke-width="1" fill="none" fill-rule="evenodd" sketch:type="MSPage">
        <g id="agilebits-logo-simple" sketch:type="MSLayerGroup" fill="#FFFFFF">
            <g id="Page-1" sketch:type="MSShapeGroup">
                <g id="agilebits-logo-simple">
                    <g id="Page-1">
                        <g id="Families">
                            <g id="Footer">
                                <g id="agilebits-logo-simple-dark">
                                    <path d="M75.6239833,21.2523719 C74.9921788,21.2523719 74.48,20.7479912 74.48,20.1097521 L74.48,1.14261982 C74.48,0.511568318 75.00309,0 75.6306805,0 L77.8893195,0 C78.5248228,0 79.04,0.522410847 79.04,1.1491866 L79.04,4.5540797 L85.4857236,4.5540797 C86.1232128,4.5540797 86.64,5.07213712 86.64,5.70182095 L86.64,20.1046307 C86.64,20.7385107 86.1175,21.2523719 85.4960167,21.2523719 L75.6239833,21.2523719 L75.6239833,21.2523719 L75.6239833,21.2523719 L75.6239833,21.2523719 Z M79.04,9.10815939 L82.08,9.10815939 L82.08,16.6982922 L79.04,16.6982922 L79.04,9.10815939 L79.04,9.10815939 L79.04,9.10815939 L79.04,9.10815939 Z M88.16,5.70182095 C88.16,5.06794096 88.68309,4.5540797 89.3106805,4.5540797 L91.5693195,4.5540797 C92.2048228,4.5540797 92.72,5.07213712 92.72,5.70182095 L92.72,20.1046307 C92.72,20.7385107 92.19691,21.2523719 91.5693195,21.2523719 L89.3106805,21.2523719 C88.6751772,21.2523719 88.16,20.7343145 88.16,20.1046307 L88.16,5.70182095 L88.16,5.70182095 L88.16,5.70182095 L88.16,5.70182095 Z M89.3106805,0 L91.5693195,0 C92.2048228,0 92.72,0.501342426 92.72,1.13051413 L92.72,1.905539 C92.72,2.52990472 92.19691,3.03605313 91.5693195,3.03605313 L89.3106805,3.03605313 C88.6751772,3.03605313 88.16,2.5347107 88.16,1.905539 L88.16,1.13051413 C88.16,0.506148415 88.68309,0 89.3106805,0 L89.3106805,0 L89.3106805,0 Z M95.3906805,0 L97.6493195,0 C98.2848228,0 98.8,0.522410847 98.8,1.1491866 L98.8,4.5540797 L99.1835602,4.5540797 C99.8111986,4.5540797 100.32,5.07649054 100.32,5.7032663 L100.32,7.95897279 C100.32,8.59365103 99.8053973,9.10815939 99.1835602,9.10815939 L98.8,9.10815939 L98.8,16.6982922 L109.44,16.6982922 L109.44,15.1802657 L102.994276,15.1802657 C102.356787,15.1802657 101.84,14.6677426 101.84,14.0430776 L101.84,5.69126773 C101.84,5.06321612 102.3625,4.5540797 102.983983,4.5540797 L112.856017,4.5540797 C113.487821,4.5540797 114,5.07649054 114,5.7032663 L114,7.95897279 C114,8.59365103 113.501343,9.10815939 112.845724,9.10815939 L106.4,9.10815939 L106.4,10.626186 L112.845724,10.626186 C113.483213,10.626186 114,11.138709 114,11.763374 L114,20.1151839 C114,20.7432355 113.491691,21.2523719 112.852209,21.2523719 L95.387791,21.2523719 C94.7538835,21.2523719 94.24,20.7479912 94.24,20.1097521 L94.24,1.14261982 C94.24,0.511568318 94.76309,0 95.3906805,0 L95.3906805,0 L95.3906805,0 Z M63.84,6.07210626 L63.84,13.6622391 L63.84,13.6622391 L71.44,13.6622391 L71.44,6.07210626 L63.84,6.07210626 L63.84,6.07210626 L63.84,6.07210626 Z M62.32,5.31309298 L62.32,21.2523719 L63.08,21.2523719 L63.08,21.2523719 L72.96,21.2523719 L72.96,19.7343454 L63.84,19.7343454 L63.84,15.1802657 L72.96,15.1802657 L72.96,14.4212524 L72.96,4.5540797 L72.2,4.5540797 L62.32,4.5540797 L62.32,5.31309298 L62.32,5.31309298 L62.32,5.31309298 L62.32,5.31309298 Z M44.08,4.5540797 L53.96,4.5540797 L54.72,4.5540797 L54.72,24.288425 L44.08,24.288425 L44.08,22.7703985 L53.2,22.7703985 L53.2,21.2523719 L44.08,21.2523719 L44.08,5.31309298 L44.08,4.5540797 L44.08,4.5540797 L44.08,4.5540797 Z M45.6,6.07210626 L53.2,6.07210626 L53.2,19.7343454 L45.6,19.7343454 L45.6,6.07210626 L45.6,6.07210626 L45.6,6.07210626 L45.6,6.07210626 L45.6,6.07210626 Z M31.92,10.626186 L31.92,11.3851992 L31.92,21.2523719 L32.68,21.2523719 L41.8,21.2523719 L42.56,21.2523719 L42.56,4.5540797 L41.8,4.5540797 L31.92,4.5540797 L31.92,6.07210626 L41.04,6.07210626 L41.04,10.626186 L31.92,10.626186 L31.92,10.626186 L31.92,10.626186 Z M41.04,12.1442125 L33.44,12.1442125 L33.44,19.7343454 L41.04,19.7343454 L41.04,12.1442125 L41.04,12.1442125 L41.04,12.1442125 L41.04,12.1442125 L41.04,12.1442125 Z M56.24,4.5540797 L56.24,21.2523719 L57.76,21.2523719 L57.76,4.5540797 L56.24,4.5540797 L56.24,4.5540797 L56.24,4.5540797 L56.24,4.5540797 Z M56.24,1.51802657 L56.24,3.03605313 L57.76,3.03605313 L57.76,1.51802657 L56.24,1.51802657 L56.24,1.51802657 L56.24,1.51802657 L56.24,1.51802657 Z M59.28,0 L59.28,21.2523719 L60.8,21.2523719 L60.8,0 L59.28,0 L59.28,0 L59.28,0 L59.28,0 Z M8.36105531,4.5540797 C3.74337197,4.5540797 0,8.29110588 0,12.9032258 C0,17.5143319 3.74005945,21.2523719 8.36105531,21.2523719 L15.9589447,21.2523719 C20.576628,21.2523719 24.32,17.5153457 24.32,12.9032258 C24.32,8.29211974 20.5799405,4.5540797 15.9589447,4.5540797 L8.36105531,4.5540797 L8.36105531,4.5540797 L8.36105531,4.5540797 L8.36105531,4.5540797 Z M8.36292557,6.07210626 C4.58368214,6.07210626 1.52,9.12967314 1.52,12.9032258 C1.52,16.675949 4.58022872,19.7343454 8.36292557,19.7343454 L15.9570744,19.7343454 C19.7363179,19.7343454 22.8,16.6767785 22.8,12.9032258 C22.8,9.13050266 19.7397713,6.07210626 15.9570744,6.07210626 L8.36292557,6.07210626 L8.36292557,6.07210626 L8.36292557,6.07210626 L8.36292557,6.07210626 Z M15.96,7.59013283 C13.0218451,7.59013283 10.64,9.9682404 10.64,12.9032258 C10.64,15.837566 13.0211991,18.2163188 15.96,18.2163188 C18.8981549,18.2163188 21.28,15.8382112 21.28,12.9032258 C21.28,9.96888558 18.8988009,7.59013283 15.96,7.59013283 L15.96,7.59013283 L15.96,7.59013283 L15.96,7.59013283 Z" id="AgileBits"></path>
                                </g>
                            </g>
                        </g>
                    </g>
                </g>
            </g>
        </g>
    </g>
</svg>