<?xml version="1.0" encoding="utf-8"?>
<!-- Generator: Adobe Illustrator 18.1.1, SVG Export Plug-In . SVG Version: 6.00 Build 0)  -->
<!DOCTYPE svg PUBLIC "-//W3C//DTD SVG 1.1//EN" "http://www.w3.org/Graphics/SVG/1.1/DTD/svg11.dtd">
<svg version="1.1" id="Layer_1" xmlns="http://www.w3.org/2000/svg" xmlns:xlink="http://www.w3.org/1999/xlink" x="0px" y="0px"
	 viewBox="0 0 1133.9 425.2" enable-background="new 0 0 1133.9 425.2" xml:space="preserve">
<g>
	<path fill="white" d="M367.7,298.2c0,6.2,0,12.4,0,18.7c-13.2,0-26.3,0-39.4,0c0-69.4,0-138.8,0-208.3c13.1,0,26.2,0,39.4,0
		c0,25.4,0,50.8,0,76.7c0.6-0.7,1-1.1,1.3-1.5c10-12.1,22.8-19.5,38.4-21.2c26.4-2.8,51.2,8.9,64.3,34.7c5.3,10.6,8.2,21.8,9.2,33.5
		c1.1,13.4,0.5,26.8-3.2,39.8c-3.7,13.1-9.9,24.9-20.1,34.1c-10.4,9.5-22.8,14.5-36.8,15.7c-13.7,1.2-26.4-1.5-38-9.1
		c-5.1-3.4-9.6-7.4-13.5-12.1c-0.4-0.4-0.7-0.8-1.1-1.3C368,298.1,367.9,298.1,367.7,298.2z M367.8,241.8c0,8.2,0,16.4,0,24.6
		c0,1.5,0.4,2.7,1.4,3.8c10.9,11.9,24.4,17,40.4,14.5c13.2-2.1,21.9-10.1,27-22.1c4.6-10.8,4.8-22.1,2.7-33.4
		c-1.8-9.6-6.2-17.9-13.9-24.1c-9.3-7.5-20.1-9.1-31.4-6.8c-9.9,2.1-18.3,6.9-24.8,14.9c-0.9,1.1-1.3,2.3-1.3,3.9
		C367.8,225.4,367.8,233.6,367.8,241.8z"/>
	<path fill="white" d="M891.8,254.1c0.9,7.4,3.7,13.8,8.1,19.5c7.2,9.3,16.8,14.2,28.5,15.2c16.5,1.5,31.5-2.7,44.9-12.5c0.4-0.3,0.8-0.7,1.2-1
		c0.4-0.3,0.7-0.6,1.2-1.1c5.8,8.5,11.6,17,17.6,25.8c-2.9,2.1-5.6,4.4-8.6,6.3c-10,6.6-21.2,10.3-32.9,12.5
		c-10.7,2-21.5,2.6-32.3,1.2c-26.1-3.4-46.9-15.2-59.9-38.8c-5.5-10-8.3-20.7-9.1-32c-1-13,0.3-25.7,5.2-37.9
		c10.8-26.9,30.7-43,59.1-48c16.3-2.9,32.3-1.1,47.4,6.3c18.1,8.9,29.9,23.4,36.6,42.3c3.6,10.1,5.2,20.6,5.3,31.2
		c0.1,3.6,0,7.2,0,10.9C966.6,254.1,929.3,254.1,891.8,254.1z M965.5,227.1c0-0.5,0-0.9,0-1.3c-1.2-9.6-4.9-17.8-12.5-24
		c-7.5-6-16.1-8.3-25.6-8.1c-14.9,0.3-25.7,7-32.4,20.3c-2,4.1-3.3,8.4-3.8,13.1C916,227.1,940.7,227.1,965.5,227.1z"/>
	<path fill="white" d="M498.7,166c13.3,0,26.3,0,39.6,0c0,0.7,0,1.4,0,2c0,29.3,0,58.6,0,87.9c0,3.8,0.3,7.6,1,11.4c1.7,9.6,7.9,14.9,17.1,17
		c14.5,3.2,27.3-0.3,38.4-10.2c0.9-0.8,1.7-1.6,2.6-2.3c2.3-2.1,3.4-4.4,3.4-7.7c-0.2-31.9-0.1-63.9-0.1-95.8c0-0.7,0-1.4,0-2.2
		c13.2,0,26.3,0,39.5,0c0,50.2,0,100.4,0,150.8c-13.1,0-26.2,0-39.5,0c0-6.1,0-12.3,0-18.4c-0.1-0.1-0.3-0.1-0.4-0.2
		c-0.7,0.8-1.4,1.6-2.2,2.3c-9.6,8.9-20.4,15.7-33.3,18.4c-11.7,2.5-23.4,2.6-35-0.2c-16-3.9-25.6-14.4-29.3-30.2
		c-1.1-4.5-1.6-9.3-1.6-14c-0.1-35.5-0.1-71-0.1-106.5C498.7,167.5,498.7,166.8,498.7,166z"/>
	<path fill="white" d="M753.5,200.6c0-11.6,0-23,0-34.5c8.3,0,16.5,0,25,0c0-0.9,0-1.6,0-2.3c0-6.8-0.1-13.6,1.3-20.3
		c4.1-20.2,19.6-34.7,40.1-37.5c12.3-1.6,24.3-0.4,35.9,4.2c5,2,9.3,5.1,13,9.2c-5,7.8-9.9,15.5-15,23.4c-3-2.8-6.3-4.7-10.2-5.5
		c-6.1-1.3-12-1.1-17.3,2.6c-3.9,2.7-6.4,6.5-7,11.1c-0.7,4.9-0.8,10-1.1,15.1c10.6,0,20.7,0,30.9,0c0,11.5,0,22.9,0,34.6
		c-10.2,0-20.3,0-30.6,0c0,38.9,0,77.6,0,116.4c-13.3,0-26.5,0-39.9,0c0-0.8,0-1.5,0-2.2c0-37.3,0-74.5,0-111.8c0-2.3,0-2.3-2.3-2.3
		c-6.9,0-13.8,0-20.7,0C754.9,200.6,754.3,200.6,753.5,200.6z"/>
	<path fill="white" d="M676.2,316.9c0-38.7,0-77.4,0-116.2c-8.4,0-16.6,0-25,0c0-11.6,0-23,0-34.6c8.3,0,16.5,0,25,0c0-0.8,0-1.5,0-2.1
		c0-6.8-0.1-13.6,1.3-20.3c3.9-20,19.7-35,39.9-37.6c12.3-1.6,24.3-0.5,35.9,4.1c5.1,2,9.4,5.1,13.2,9.3c-5,7.8-9.9,15.5-14.8,23.2
		c-2-1.3-3.9-2.8-6-3.7c-5.2-2.4-10.7-3-16.2-1.5c-6.5,1.7-10.6,6-12.4,12.5c-1.4,5.3-1,10.7-1,16.2c10.3,0,20.4,0,30.6,0
		c0,11.6,0,23,0,34.6c-0.7,0-1.3,0-1.9,0c-8.9,0-17.8,0-26.7,0c-2.1,0-2.1,0-2.1,2c0,37.3,0,74.6,0,112c0,0.7,0,1.5,0,2.3
		C702.8,316.9,689.6,316.9,676.2,316.9z"/>
	<path fill="white" d="M132.2,203.7c-2.8-0.4-5.4-0.9-7.8-2.1c-31.7-14.8-63.3-29.6-95-44.4c-0.9-0.4-1.9-0.9-2.7-1.6c-1.4-1.2-1.4-2.6,0-3.8
		c0.7-0.6,1.6-1.1,2.5-1.6c31.8-14.9,63.6-29.7,95.4-44.6c4.9-2.3,9.8-2.3,14.7,0c23.3,10.9,46.6,21.8,70,32.7
		c8.3,3.9,16.7,7.8,25,11.7c1.1,0.5,2.2,1.1,3.1,1.8c1.3,1.1,1.3,2.5,0,3.7c-0.8,0.7-1.7,1.2-2.6,1.6
		c-31.9,14.9-63.8,29.8-95.7,44.7C137,202.8,134.5,203.1,132.2,203.7z"/>
	<path fill="white" d="M1060,316.9c-13.2,0-26.3,0-39.5,0c0-50.3,0-100.5,0-150.8c13.1,0,26.1,0,39.4,0c0,6.6,0,13.3,0,20.4
		c13.2-14.3,28.4-23.8,48.2-24.3c0,13,0,25.8,0,38.6c-2.5-0.2-4.9-0.5-7.3-0.6c-13.8-0.6-25.9,3.5-36.6,12.3
		c-0.2,0.1-0.3,0.3-0.5,0.4c-2.6,2.3-3.9,4.9-3.9,8.7c0.2,31.1,0.1,62.2,0.1,93.3C1060,315.5,1060,316.2,1060,316.9z"/>
	<path fill="white" d="M53.4,258.1c2.6,0.8,5.2,1.2,7.5,2.3c21.3,9.8,42.5,19.8,63.7,29.7c4.8,2.2,9.7,2.3,14.6,0c21.5-10,43-20.1,64.6-30.1
		c4.4-2.1,9.1-2.1,13.6-0.1c6,2.6,11.9,5.5,17.8,8.3c1.4,0.7,3,1.3,3.1,3.2c0,2-1.6,2.7-3.1,3.3c-21.9,10.3-43.9,20.5-65.8,30.8
		c-10.1,4.7-20.2,9.5-30.3,14.1c-4.6,2.1-9.4,2.2-14,0c-23.4-10.9-46.8-21.8-70.3-32.8c-8.3-3.9-16.7-7.8-25-11.7
		c-0.9-0.4-1.9-0.9-2.7-1.5c-1.8-1.3-1.8-3.1,0-4.4c0.7-0.5,1.5-0.9,2.3-1.3c5.5-2.6,10.9-5.3,16.5-7.7
		C48.2,259.3,50.8,258.8,53.4,258.1z"/>
	<path fill="white" d="M132,262.1c-2.7,0.2-5.3-0.5-7.7-1.7c-21.8-10.2-43.7-20.4-65.5-30.6c-9.9-4.6-19.8-9.2-29.7-13.9
		c-1.5-0.7-3.3-1.3-3.2-3.4c0-1.9,1.7-2.6,3.2-3.3c5.8-2.7,11.5-5.5,17.4-8.1c4.6-2.1,9.4-2.1,14,0c21.6,10,43.1,20.1,64.7,30.2
		c4.6,2.1,9.4,2.1,14,0c21.5-10,43-20.1,64.6-30.1c4.7-2.2,9.5-2.2,14.1-0.1c6,2.7,11.9,5.5,17.8,8.3c0.5,0.2,0.9,0.5,1.3,0.8
		c1.9,1.4,2,3.3,0,4.6c-1.1,0.7-2.3,1.3-3.5,1.8c-27.5,12.8-55,25.7-82.5,38.5c-3.9,1.8-7.7,3.8-11.7,5.4c-2.3,0.9-4.8,1.3-7.2,2
		C132.1,262.4,132.1,262.3,132,262.1z"/>
</g>
</svg>
