<svg id="Layer_2" data-name="Layer 2" xmlns="http://www.w3.org/2000/svg" viewBox="0 0 460 140"><defs><style>.cls-1{fill:none;}.cls-2{fill:#fff;}</style></defs><title>Duckwise-Logo-White</title><rect class="cls-1" width="460" height="140"/><path class="cls-2" d="M67.5,98.59a48.78,48.78,0,0,0-10,1.33c-1.25.26-2.47.51-3.68.71A5.72,5.72,0,0,0,55.51,103c1.54,1.23,3,1,6.15.51a33.25,33.25,0,0,1,5.84-.62,33.25,33.25,0,0,1,5.84.62c3.15.54,4.6.73,6.15-.51a5.71,5.71,0,0,0,1.69-2.36c-1.2-.2-2.42-.45-3.67-.7A48.78,48.78,0,0,0,67.5,98.59Z"/><path class="cls-2" d="M91,88.4c-.92-.5-1.78-.19-3.87,1A12.26,12.26,0,0,1,84,90.86c-4.76,1.13-7.81-3-10.26-6.36-1.94-2.64-4-5.37-6.2-5.37s-4.26,2.73-6.2,5.37C58.85,87.83,55.79,92,51,90.86a12.28,12.28,0,0,1-3.21-1.45c-2.09-1.2-2.95-1.51-3.87-1-.3.16-1.21.65-.92,2.34a6.06,6.06,0,0,0,4.89,4.7c2.29.37,5.15-.22,8.45-.9A53.88,53.88,0,0,1,67.5,93.09a53.88,53.88,0,0,1,11.11,1.45c3.31.68,6.16,1.27,8.45.9A6.06,6.06,0,0,0,92,90.74C92.25,89,91.34,88.56,91,88.4Z"/><path class="cls-2" d="M68.84,47.64a3.62,3.62,0,0,1-3-5.36L66,42l.9-1.2C53.9,44,41.44,53.93,41.44,70.32A36.26,36.26,0,0,0,44.08,82.7c2.65-.26,5,1.06,6.48,1.93a9.48,9.48,0,0,0,1.74.87c1.22.29,2.92-2,4.57-4.27,2.5-3.39,5.6-7.61,10.63-7.61s8.13,4.22,10.63,7.61c1.65,2.24,3.36,4.55,4.57,4.27a9.45,9.45,0,0,0,1.74-.87c1.53-.88,3.83-2.2,6.48-1.93a36.27,36.27,0,0,0,2.64-12.38C93.56,55.28,81.14,48.09,68.84,47.64ZM55.93,73.4c-1.73,0-3.13-2.77-3.13-6.17s1.4-6.17,3.13-6.17,3.13,2.77,3.13,6.17S57.65,73.4,55.93,73.4Zm23.15,0c-1.73,0-3.13-2.77-3.13-6.17s1.4-6.17,3.13-6.17,3.13,2.77,3.13,6.17S80.8,73.4,79.07,73.4Z"/><path class="cls-2" d="M67.5,18A54.5,54.5,0,1,0,122,72.53,54.5,54.5,0,0,0,67.5,18ZM97.38,91.66a11.62,11.62,0,0,1-9.45,9.21c-.37.06-.74.1-1.11.13a11.65,11.65,0,0,1-3.9,6.28c-3.54,2.83-7.08,2.22-10.51,1.63a28.4,28.4,0,0,0-4.91-.54,28.4,28.4,0,0,0-4.91.54,25.85,25.85,0,0,1-4.35.5,9.4,9.4,0,0,1-6.16-2.13,11.66,11.66,0,0,1-3.9-6.29c-.37,0-.74-.07-1.11-.13a11.63,11.63,0,0,1-9.45-9.21,7.71,7.71,0,0,1,1.57-6.33,41.78,41.78,0,0,1-3.25-15C35.94,51.75,50.3,37,70.86,34.43a3.62,3.62,0,0,1,3.62,5.34l-.21.32-1.75,2.33c15.79,1.95,26.53,13,26.53,27.9a41.78,41.78,0,0,1-3.25,15A7.71,7.71,0,0,1,97.38,91.66Z"/><path class="cls-2" d="M424,55.41a21.32,21.32,0,0,0-18.52,10.21h0c-1.79-8.12-10-10.2-17.94-10.2-6.75,0-15.38,2-17.59,8.67V56.55H345.73l-6.5,25.62h-.15l-5.81-25.62H320.87l-5.66,25.7h-.15l-6.66-25.7H286L274.13,69.78V41.63h-13v29.2l-10.82,5c1.22,4.07.24,7.4-3.85,9.3-5,2.33-9.23-1.52-11.4-6.16-2.33-5-3.91-11.09,2.68-14.16a6.12,6.12,0,0,1,8.18,2.52L257.36,62C252.1,52.93,241.93,51.93,233,56.1a20.63,20.63,0,0,0-10.56,10.3V56.55h-13V77.81c0,7-4.28,8.87-7.11,8.87-4.13,0-6.43-1.84-6.43-7.11v-23H183.19V41.63h-13v19.2H170a13.29,13.29,0,0,0-11.32-5.43C147.47,55.4,142,65.19,142,75.52c0,11.17,5.28,21.88,17.75,21.88a12.69,12.69,0,0,0,10.94-5.74h.15v4.59h12.39V85.34c1,7.5,4.91,12,14.38,12a14.63,14.63,0,0,0,12.09-6.58h.15v5.43h12.62V82.47q.38,1,.86,2c5.14,11,16.64,14.69,27.45,9.65a21.21,21.21,0,0,0,10.4-9.7V96.24h13V83.55l3.37-3.29,9.71,16h15.68L286.53,71.54l10.13-10.45,11,35.16h13.16L327,69.86h.15l6.27,26.39h13.16l10.32-33.07V96.24h13V88.8c2.93,6.56,10.64,8.59,18.2,8.59,7.16,0,15-2.25,17.91-8.59h0c3.71,5.54,10.17,8.58,18.25,8.58,8.87,0,17.35-4,19.72-13.15H431.83c-1.22,2.91-4.28,4.36-7.42,4.36-5.5,0-8.64-3.59-8.87-9h29.13C445.29,66.11,438.18,55.41,424,55.41Zm-261,32c-6,0-8-6-8-11.47,0-5,2-10.63,8-10.63,5.66,0,7.73,5.28,7.73,11C170.65,81.41,169.27,87.45,162.92,87.45ZM388,89a8.15,8.15,0,0,1-4.82-1.38,5.34,5.34,0,0,1-2.14-4.44H369.89V71.35c2.2,7,10.82,7.42,17.9,9.21,2.29.54,6.35,1.15,6.35,4.21S390.54,89,388,89ZM382.36,66.8c0-2.75,3.44-3,5.58-3a7.7,7.7,0,0,1,4.13,1,3.74,3.74,0,0,1,1.68,3.44h10.35c0,.08,0,.18-.08.26a20.4,20.4,0,0,0-.82,2.6c0,.15-.08.3-.12.46a21.36,21.36,0,0,0-.44,3c0,.09,0,.17,0,.26a14.31,14.31,0,0,0-5.56-2.3C391.08,71.23,382.36,70.54,382.36,66.8Zm33.19,5.51c.76-4.82,3.82-8.1,8.41-8.1,4.36,0,7.49,3.67,7.72,8.1Z"/><circle class="cls-2" cx="363.39" cy="45.54" r="7.76"/></svg>