<?xml version="1.0" encoding="UTF-8"?>
<svg width="354px" height="353px" viewBox="0 0 354 353" version="1.1" xmlns="http://www.w3.org/2000/svg" xmlns:xlink="http://www.w3.org/1999/xlink">
    <!-- Generator: Sketch 43 (38999) - http://www.bohemiancoding.com/sketch -->
    <title>mobilelife</title>
    <desc>Created with Sketch.</desc>
    <defs></defs>
    <g id="Page-1" stroke="none" stroke-width="1" fill="none" fill-rule="evenodd">
        <path d="M318.295,142.148 C315.225,142.148 312.158,140.976 309.815,138.634 C305.131,133.953 305.131,126.359 309.815,121.676 C330.793,100.696 339.346,63.964 316.584,41.203 C305.994,30.612 290.092,24.537 272.962,24.537 C255.832,24.537 239.933,30.612 229.343,41.203 L213.019,57.527 C201.108,69.438 189.341,75.228 177.049,75.228 C164.757,75.228 152.991,69.438 141.079,57.526 L124.613,41.059 C114.023,30.468 98.122,24.393 80.991,24.393 C63.86,24.393 47.962,30.468 37.373,41.059 C14.61,63.822 23.164,100.554 44.142,121.532 C48.825,126.215 48.825,133.807 44.142,138.491 C39.455,143.174 31.866,143.174 27.18,138.491 C-6.223,105.089 -9.26,53.773 20.411,24.101 C35.465,9.044 57.547,0.409 80.991,0.409 C104.435,0.409 126.517,9.044 141.575,24.101 L158.041,40.567 C165.124,47.651 171.52,51.244 177.049,51.244 C182.579,51.244 188.974,47.651 196.057,40.567 L212.385,24.243 C227.437,9.188 249.518,0.553 272.962,0.553 C296.406,0.553 318.488,9.188 333.545,24.244 C363.216,53.915 360.179,105.229 326.777,138.634 C324.433,140.976 321.367,142.148 318.295,142.148 Z M177.049,270.136 C162.913,270.136 149.329,264.025 137.767,252.466 L57.078,171.774 C52.395,167.09 52.395,159.499 57.078,154.815 C61.765,150.131 69.354,150.131 74.04,154.815 L154.73,235.506 C161.693,242.471 169.411,246.153 177.049,246.153 C184.687,246.153 192.405,242.471 199.369,235.506 L240.475,194.398 C245.163,189.714 252.751,189.714 257.438,194.398 C262.121,199.081 262.121,206.673 257.438,211.357 L216.332,252.466 C204.77,264.025 191.185,270.136 177.049,270.136 Z M303.759,166.737 C303.759,177.123 295.339,185.543 284.954,185.543 C274.568,185.543 266.148,177.123 266.148,166.737 C266.148,156.351 274.568,147.932 284.954,147.932 C295.339,147.932 303.759,156.351 303.759,166.737 Z M73.5,332.1 L73.5,352.468 L64.247,352.468 L64.247,332.1 C64.247,327.24 62.315,325.244 60.121,325.244 C56.727,325.244 53.265,329.902 53.265,336.16 L53.265,352.468 L44.012,352.468 L44.012,332.1 C44.012,327.24 42.149,325.177 39.951,325.177 C36.558,325.177 33.095,329.37 33.095,336.226 L33.095,352.468 L23.846,352.468 L23.846,318.921 L33.095,318.921 L33.095,323.247 C35.493,320.585 39.821,318.388 43.814,318.388 C47.341,318.388 50.471,320.251 52.066,324.845 C53.929,321.65 59.189,318.455 63.98,318.455 C68.972,318.455 73.5,321.851 73.5,332.1 Z M114.315,335.628 C114.315,346.077 107.658,353 97.676,353 C87.824,353 81.167,346.011 81.102,335.562 C81.167,325.244 87.824,318.388 97.676,318.388 C107.593,318.388 114.25,325.311 114.315,335.628 Z M90.355,335.628 C90.355,329.836 93.283,325.977 97.676,325.977 C102.135,325.977 105.063,329.836 105.063,335.628 C105.063,341.419 102.135,345.279 97.676,345.213 C93.283,345.279 90.355,341.419 90.355,335.628 Z M154.167,335.826 C154.167,344.613 149.308,353 141.124,353 C137.063,353 134.066,351.735 131.337,349.406 L131.337,352.468 L122.087,352.468 L122.087,305.876 L131.337,305.876 L131.337,321.983 C133.734,319.785 137.128,318.388 140.788,318.388 C150.575,318.388 154.167,327.042 154.167,335.826 Z M144.918,335.826 C144.918,341.684 141.921,345.545 137.463,345.545 C133.203,345.545 130.34,341.684 130.34,335.826 C130.34,329.97 133.203,326.11 137.463,326.11 C141.921,326.11 144.918,329.97 144.918,335.826 Z M162.221,352.468 L162.221,318.921 L171.474,318.921 L171.474,352.468 L162.221,352.468 Z M171.94,309.336 C171.94,312.132 169.676,314.396 166.881,314.396 C164.084,314.396 161.824,312.132 161.824,309.336 C161.824,306.54 164.084,304.276 166.881,304.276 C169.676,304.276 171.94,306.54 171.94,309.336 Z M181.3,352.468 L181.3,305.876 L190.549,305.876 L190.549,352.468 L181.3,352.468 Z M230.376,339.088 L207.477,339.088 C208.21,342.484 211.271,344.681 215.466,344.681 C218.127,344.681 220.722,343.549 221.921,341.818 L229.109,345.944 C225.914,350.204 220.124,353 214.733,353 C203.816,353 198.224,344.347 198.224,335.562 C198.224,327.706 203.816,318.388 214.733,318.388 C231.838,318.388 231.173,336.426 230.376,339.088 Z M207.343,332.233 C207.809,328.372 210.672,325.843 214.733,325.843 C218.528,325.843 221.256,328.305 222.054,332.233 L207.343,332.233 Z M238.25,352.468 L238.25,305.876 L247.503,305.876 L247.503,352.468 L238.25,352.468 Z M257.26,352.468 L257.26,318.921 L266.509,318.921 L266.509,352.468 L257.26,352.468 Z M266.978,309.336 C266.978,312.132 264.715,314.396 261.918,314.396 C259.123,314.396 256.86,312.132 256.86,309.336 C256.86,306.54 259.123,304.276 261.918,304.276 C264.715,304.276 266.978,306.54 266.978,309.336 Z M285.588,318.921 L293.708,318.921 L293.708,327.24 L285.588,327.24 L285.588,352.468 L276.336,352.468 L276.336,318.921 C276.336,308.736 283.127,305.276 289.848,305.276 C292.845,305.276 295.837,306.141 298.169,307.805 L293.975,315.394 C292.845,313.995 291.646,313.596 290.246,313.596 C287.986,313.596 285.856,314.328 285.588,318.921 Z M330.044,339.088 L307.148,339.088 C307.88,342.484 310.942,344.681 315.133,344.681 C317.797,344.681 320.393,343.549 321.592,341.818 L328.78,345.944 C325.585,350.204 319.794,353 314.401,353 C303.488,353 297.895,344.347 297.895,335.562 C297.895,327.706 303.488,318.388 314.401,318.388 C331.509,318.388 330.841,336.426 330.044,339.088 Z M307.014,332.233 L321.725,332.233 C320.924,328.305 318.195,325.843 314.401,325.843 C310.343,325.843 307.48,328.372 307.014,332.233 Z" id="mobilelife" fill="#FFFFFF"></path>
    </g>
</svg>