<?xml version="1.0" encoding="UTF-8"?>
<svg width="442px" height="51px" viewBox="0 0 442 51" version="1.1" xmlns="http://www.w3.org/2000/svg" xmlns:xlink="http://www.w3.org/1999/xlink">
    <!-- Generator: Sketch 42 (36781) - http://www.bohemiancoding.com/sketch -->
    <title>nordfynsbank</title>
    <desc>Created with Sketch.</desc>
    <defs></defs>
    <g id="Page-1" stroke="none" stroke-width="1" fill="none" fill-rule="evenodd">
        <path d="M215.693792,18.3492934 C215.683645,18.3467284 215.673956,18.344724 215.664766,18.3433181 L224.678511,18.3433181 C225.10475,18.3433181 225.633564,18.6171862 225.845687,18.6948651 C226.268938,18.9298937 226.640403,19.2824366 226.799744,19.6359754 L230.776308,32.2538244 L240.798884,19.9885183 C241.291847,19.3551361 240.912415,18.987655 240.792909,18.8432518 C240.620621,18.636108 240.466259,18.4200012 239.724325,18.4200012 L246.154748,18.4200012 C247.532055,18.4598365 247.844763,18.309458 248.273989,18.6948651 C248.655412,19.0354574 248.608606,19.6001236 248.273989,19.9885183 L225.422437,47.774675 C225.156536,48.1272179 224.973293,48.5853245 225.043005,49.147003 C225.086824,49.5005418 225.284009,50.047282 225.974156,50.047282 L218.635488,50.047282 C218.015052,50.0492738 217.146641,49.85906 216.884724,49.5005418 C216.740321,49.3003691 216.585959,48.7924683 216.792107,48.4727896 L224.678511,38.7997693 C224.678511,38.7997693 219.195175,24.0457493 219.129446,23.8674861 C218.979001,23.4707714 218.989912,23.3580434 218.683985,23.3199252 C218.536436,23.3296751 218.377847,23.3267211 218.211241,23.3267211 L210.257117,23.3267211 L204.000974,41.5115611 C203.896406,41.9577171 203.768933,42.4267784 203.84462,42.8171649 C203.893418,43.0671318 204.014916,43.5222507 204.624397,43.5610902 L197.226972,43.5610902 C196.454166,43.5162754 195.761031,43.3529505 195.4782,42.9735187 C195.235204,42.6498564 195.249146,42.0224496 195.358693,41.5115611 L201.721396,23.3267211 L198.009736,23.3267211 L199.652945,18.3492934 L201.827955,18.3492934 C202.091865,18.3492934 202.546983,18.2875486 202.856703,18.1999108 C203.183353,18.1092854 203.337715,17.9081168 203.417386,17.6461994 C204.470035,14.2084082 204.332603,13.7503016 206.493671,12.5502615 C207.438765,12.0234389 207.660847,12.1200396 209.197496,12.0413648 L223.141862,12.0413648 L222.717616,14.7451896 C222.629978,15.1076913 222.294365,15.3058722 222.081246,15.4482836 C221.629115,15.7550158 221.235741,15.8486289 220.702943,15.8804972 L212.802596,15.8804972 L211.955099,18.3492934 L215.693792,18.3492934 Z M355.303623,18.481746 L372.269501,18.481746 C374.180602,18.481746 375.55791,18.6380997 376.725086,19.5393747 C378.105381,20.5591598 378.528631,22.2063517 377.945043,23.5776839 L373.171772,39.6442788 C372.48262,41.4856681 372.748521,42.5741692 372.896908,42.8958397 C373.04629,43.2185061 373.101064,43.4057323 373.524315,43.682588 L364.742611,43.682588 C364.129146,43.545156 363.709879,43.1308683 363.522653,42.8958397 C363.34439,42.6727617 363.096414,42.1917498 363.096414,41.8770505 L366.650724,31.0229119 L360.024113,31.0229119 C358.802163,31.0229119 357.742543,31.1394303 357.001605,31.8066725 C356.10033,32.6292726 353.921336,36.2662406 355.409187,37.3716718 C355.537656,37.4662807 355.831441,37.7630541 356.631136,37.841729 L364.742611,37.841729 L363.224883,42.1539062 C362.959978,42.4656179 362.382366,42.8689509 361.95314,43.0930248 C361.439264,43.3619134 360.704301,43.682588 360.120713,43.682588 L351.431626,43.682588 C350.212664,43.7991064 347.828518,43.1716996 346.927243,41.7595362 C344.751237,38.2729467 348.304551,29.9264437 350.743471,27.7315156 C351.857865,26.5942162 354.562685,26.399023 356.89405,26.399023 L366.384823,26.399023 C367.219374,26.4288995 367.604781,26.399023 368.188369,26.2406774 C368.98408,25.8104556 368.885488,25.8014926 369.013957,25.0247032 C369.089644,24.5576336 368.823743,24.262852 368.558838,23.9889839 C368.295924,23.6752805 367.604781,23.5976015 366.915629,23.5976015 L357.211736,23.5976015 C356.470799,23.5976015 355.834429,23.3615771 355.409187,23.1653879 C354.985936,23.0080383 354.720035,22.4593063 354.720035,22.0290844 L355.303623,18.481746 Z M187.474281,12.3122452 L194.987229,12.3122452 C195.518035,12.3122452 196.020956,12.5193891 196.31275,12.7823024 C196.603548,13.0442199 197.059663,13.4923676 196.965054,14.0769515 L187.616692,41.2745408 C187.517104,41.7426062 187.469301,42.0563096 187.509137,42.4656179 C187.540009,42.7922678 187.495194,43.2533621 188.219202,43.5859873 L181.996919,43.5859873 C180.670402,43.5481437 180.034032,43.5859873 179.398658,43.2334444 C179.079975,42.9207368 178.92163,42.4895191 179.079975,41.8999558 L184.912867,23.9919716 L180.247151,23.9919716 C178.073137,24.1871648 175.738785,23.0897008 173.247083,27.4008822 C172.240245,29.3597858 169.482642,33.749642 170.278353,35.7872205 C171.603875,39.0009378 176.746619,37.9811527 180.034032,37.4334166 C180.458279,37.3547417 181.148426,36.8468409 181.519891,36.6894913 L178.995325,42.1160626 C178.685605,42.4895191 177.603079,43.1985884 176.999574,43.3320369 C175.436036,43.6796004 174.254918,43.5859873 173.618548,43.5859873 L168.369244,43.5859873 C167.044718,43.5859873 165.877542,43.2722839 164.711362,42.9207368 C162.114097,41.8621123 161.475736,39.6283447 161.475736,37.4334166 C161.422954,33.2407453 165.346736,22.0310762 171.815998,19.3670867 C173.247083,18.8183547 175.156193,18.8183547 177.171862,18.8183547 L186.396734,18.8183547 L188.38651,13.7333715 C188.448255,13.3360139 188.305844,13.0561705 188.20028,12.8609772 C188.040939,12.6249528 187.898527,12.3122452 187.474281,12.3122452 Z M78.3692242,12.2594634 L86.9268546,12.2594634 C87.6160062,12.2594634 88.3071496,12.5532491 88.6766226,12.7673641 C88.9156347,12.9077838 89.2602105,13.1597424 89.5241198,13.5521207 L97.1067798,27.9346759 L101.454809,13.8648282 C101.485681,13.4236516 101.35522,13.077084 101.189904,12.846039 C100.942925,12.5014631 100.900101,12.4556525 100.21095,12.2594634 L107.606384,12.2594634 C108.666004,12.2594634 108.930909,12.3759818 109.355156,12.7673641 C109.514497,12.9645492 109.875007,13.2762608 109.745542,13.7592645 L100.660093,43.6128761 L96.736311,43.6128761 C96.0471593,43.6128761 95.3560159,43.297181 94.8272015,43.1019877 C94.402955,42.9067945 93.9757208,42.661807 93.7138033,42.3182271 L85.1770866,24.9161518 L79.8750007,41.6121454 C79.7903505,42.0403755 79.8132559,42.4108443 80.2464654,42.9067945 C80.6039877,43.3180945 82.3676981,43.6128761 81.7303324,43.6128761 L72.5691964,43.6347856 C72.0383903,43.6347856 71.3004403,43.2842345 71.1251647,43.1019877 C70.9618398,42.9296998 70.6869758,42.7125971 70.7785971,42.0453549 L79.4507541,13.9843343 C79.5573137,13.4734458 79.5403837,13.2433967 79.2914127,12.846039 C79.0036023,12.3879324 78.834302,12.4068542 78.3692242,12.2594634 Z M109.270506,41.1878989 C106.30078,37.935342 107.467956,28.1756798 113.88344,22.2192982 C117.435758,19.0444204 121.094635,18.4170135 125.97347,18.5355237 L125.97347,22.8855446 C124.117143,22.8855446 121.889351,23.002063 120.246142,24.6104155 C117.435758,27.6269478 115.473867,33.5056505 115.473867,36.0531215 C115.207966,40.4439736 123.852238,40.4439736 125.654788,38.0926917 C128.570736,34.6817893 131.858148,27.1568906 130.161162,24.2568767 C129.577574,23.2769269 127.828802,22.8068697 125.97347,22.8855446 L125.97347,18.5355237 C131.963712,18.6520421 138.061509,18.9269061 138.539534,25.000802 C138.645097,28.4903791 136.418301,38.0140169 131.168997,40.9927056 C123.692896,45.3427265 112.079894,44.0879128 109.270506,41.1878989 Z M145.1771,18.3283798 L152.941011,18.3283798 C153.417043,18.3283798 153.970755,18.3662234 154.3711,18.5235731 C155.297272,18.8910542 155.325157,20.2892752 155.166811,20.9166821 L156.386769,19.1918112 C156.598892,18.9179431 157.116752,18.6580174 157.484233,18.5295484 C157.682414,18.4608324 158.113632,18.3492934 158.526923,18.3283798 L166.778817,18.3283798 L165.611641,21.6606074 C165.611641,22.0509939 165.241173,22.366689 164.976267,22.6784007 C164.657585,22.9940959 163.703528,23.3844824 163.11994,23.3844824 L157.022143,23.3844824 C155.697617,23.3844824 155.166811,23.5010008 154.477659,23.8953708 C154.053413,24.0497328 153.523603,24.5606213 153.257702,25.266703 L148.061179,41.7246803 C147.872957,42.421799 147.709632,42.6120128 147.774365,42.9416504 C147.851048,43.3180945 148.080101,43.5720449 148.655722,43.6069008 L141.221449,43.6069008 C140.267392,43.6069008 139.700734,43.3559381 139.366117,43.0980042 C138.994652,42.8101937 138.838299,42.421799 138.941871,42.0403755 L145.781601,20.2892752 C146.100284,19.3880003 145.958869,19.1788647 145.781601,18.8392683 C145.719856,18.7197622 145.601346,18.3283798 145.1771,18.3283798 Z M250.593402,18.3951041 L258.812432,18.3951041 C259.130119,18.3951041 259.763501,18.5614167 260.136958,18.7864864 C260.649838,19.0942146 261.085039,19.5921565 261.085039,20.1010532 L260.825113,21.6078255 L262.523095,19.6489219 C262.715301,19.3441814 263.316815,18.9816797 263.743053,18.7864864 C264.252946,18.5504619 265.014797,18.3951041 265.545603,18.3951041 L272.013869,18.3951041 C273.446946,18.3951041 274.665908,18.7078116 275.77831,19.3352185 C277.476292,20.4316866 277.741197,22.0400391 277.050054,23.9591074 L271.430281,41.5175364 C271.37252,41.9935689 271.430281,42.4138319 271.523894,42.8380785 C271.588627,43.1398313 271.71112,43.6019214 272.107482,43.7114687 L263.90339,43.7114687 C263.477152,43.7114687 262.98419,43.4087199 262.788996,43.202572 C262.546997,42.9446381 262.575877,42.3730007 262.683433,42.0662685 L267.827173,25.7228178 C267.827173,25.0954109 267.666836,24.391321 267.401931,24.1174529 C266.870129,23.4502107 262.683433,23.2550175 260.985451,23.9591074 C260.297295,24.1174529 259.871057,24.5865143 259.608143,25.4091144 L253.986379,42.0662685 C253.889778,42.661807 254.062066,42.8958397 254.240329,43.202572 C254.38274,43.4465635 254.662584,43.7114687 254.981267,43.7114687 L246.828961,43.7114687 C246.298155,43.7114687 245.714567,43.5949502 245.344098,43.3977652 C244.866074,43.1238972 244.60316,42.7723501 244.707728,42.1449433 L251.812364,20.4316866 C251.943821,19.8371439 251.751615,19.510494 251.547459,19.1400252 C251.438908,18.9408484 250.858307,18.5126184 250.593402,18.3951041 Z M304.114195,22.7939232 C303.743726,22.9911083 303.320475,23.1076267 302.470986,23.1076267 L295.576482,23.1076267 C293.511019,23.3028199 290.681713,22.8566639 290.124018,24.7707528 C289.770479,25.9847353 289.613129,26.8949731 292.553974,27.5642071 C295.311577,28.0731038 300.175474,28.4734491 302.629332,30.6594143 C304.720688,32.5227131 303.160138,39.5954805 299.71438,41.6718984 C297.697715,42.8878727 295.632251,43.554119 292.875645,43.554119 L276.755272,43.554119 C276.17766,43.5252384 275.538302,43.2314526 275.323191,42.9665475 C275.086171,42.6757494 275.072228,42.1319968 275.217627,41.7904086 L276.174672,37.8048812 L276.285215,37.8048812 C276.323059,37.9174161 276.340984,37.9204038 276.378828,38.0020663 C276.708466,38.6583538 278.876505,38.5129547 280.680051,38.5129547 C285.397553,38.5896378 289.216767,38.7081479 291.548132,38.0807411 C293.403463,37.5698526 294.094607,36.7741414 294.35752,35.5193277 C295.154227,31.6403599 280.5954,33.904004 280.941968,28.0731038 C281.094338,25.5943488 281.531531,23.1275443 284.522171,20.5023944 C285.934334,19.2625189 287.483929,18.2287915 291.124881,18.275598 L305.864959,18.275598 L304.962688,22.0480062 C304.805338,22.4423762 304.431882,22.6754131 304.114195,22.7939232 Z M317.018858,12.2246074 L338.760995,12.2246074 C343.000473,12.2246074 343.79718,12.3411258 345.016142,13.2433967 C347.084593,14.536054 347.580543,16.2977726 346.924256,18.6520421 C346.553787,19.9855306 346.673293,19.7275967 346.364569,20.7613242 C346.051862,21.7950517 345.439393,23.4721202 345.439393,23.4721202 C344.908587,24.6861027 344.193542,25.4678715 343.108029,25.7845626 C342.022515,26.1012537 341.357265,26.1769408 340.138303,26.4886525 C341.196927,26.6858375 343.000473,27.1947342 343.638835,27.7833016 C344.589904,28.6059017 345.167517,29.0102305 344.485336,31.5059156 C343.78523,34.0762919 343.551197,34.4746455 343.324136,35.1110153 C343.099066,35.7453933 342.819222,36.5580346 341.888071,39.0696538 C341.184977,40.9608373 340.669109,41.3820962 339.449151,42.1668527 C337.3807,43.4605059 335.525369,43.5780202 331.971059,43.5780202 L318.611277,43.5780202 L320.467604,38.3635721 L328.578083,38.3635721 C329.37479,38.3635721 330.221291,38.1683789 330.859653,37.9333503 C331.706154,37.6594822 332.487923,37.1934085 332.767766,36.6396971 C333.04761,36.0849898 333.174087,35.6268832 333.783568,33.6968602 C334.060423,32.8115194 334.185905,32.0446888 334.305411,31.5059156 C334.404999,31.0597596 334.145074,30.2122624 333.721823,29.82088 C333.351354,29.3119834 332.23696,28.9982799 331.282903,28.9982799 L323.224211,28.9982799 L324.548736,24.2947203 L332.23696,24.2947203 C333.879173,24.2947203 334.410975,24.2947203 335.365031,23.7858236 C337.53805,22.6873637 338.495094,18.6520421 337.53805,17.8672856 C337.273145,17.5555739 336.744331,16.9660107 334.67588,16.9660107 L327.463689,16.9660107 L318.769622,43.5780202 L311.185966,43.5780202 C310.605366,43.5780202 309.809655,43.2643168 309.648321,42.9894528 C309.383416,42.5582351 309.493959,42.1160626 309.648321,41.6579561 L319.034527,13.9494783 C319.194865,13.4385899 319.034527,13.1258824 318.929959,12.9296932 C318.664058,12.537315 318.664058,12.3411258 317.018858,12.2246074 Z M384.033878,18.275598 L392.252907,18.275598 C392.570594,18.275598 393.311532,18.5912932 393.577433,18.669968 C394.108239,18.9438361 394.53149,19.3352185 394.53149,19.8441151 L394.265589,21.4913071 L395.963571,19.5304117 C396.121916,19.2187 396.760278,18.7864864 397.183529,18.669968 C397.711347,18.4717871 398.455272,18.275598 398.986078,18.275598 L405.45534,18.275598 C406.887421,18.275598 408.107379,18.5912932 409.218785,19.2187 C410.916767,20.3151682 411.182668,21.9215289 410.490529,23.842589 L404.871752,41.4000221 C404.80702,41.9258488 404.787102,42.2475193 404.958394,42.7315189 C405.069933,43.0462182 405.177489,43.4754442 405.600739,43.5949502 L397.340878,43.5949502 C396.917628,43.5949502 396.383834,43.2912056 396.229472,43.0840618 C396.013365,42.8012308 396.004402,42.258474 396.121916,41.9477583 L401.264661,25.6053035 C401.264661,24.9778966 401.107311,24.2728108 400.842406,23.9989428 C400.310604,23.3317005 396.121916,23.1365073 394.425926,23.842589 C393.73777,23.9989428 393.311532,24.4699958 393.046627,25.2925959 L387.426854,41.9477583 C387.330253,42.4247867 387.479636,42.7464572 387.656903,43.0671318 C387.797323,43.322078 387.978574,43.5949502 388.296261,43.5949502 L380.270432,43.5949502 C379.73863,43.5949502 379.155042,43.4754442 378.784573,43.2802509 C378.306549,43.005387 378.040648,42.65384 378.1492,42.0254372 L385.252839,20.3151682 C385.343465,19.8480987 385.250848,19.3670867 385.034741,19.0055809 C384.879383,18.7456552 384.298783,18.3951041 384.033878,18.275598 Z M416.813396,11.8222703 L424.702788,11.8222703 C425.338162,11.8222703 425.995446,12.0732331 426.292219,12.3710024 C426.607914,12.682714 426.934564,13.1039729 426.831988,13.5700466 L422.952024,26.7525617 L431.065491,20.6786658 C431.70186,20.1299338 431.967761,20.0910943 431.967761,19.5812018 C431.967761,19.2286589 431.435959,18.5614167 430.800585,18.5614167 L440.00554,18.5614167 C440.419828,18.5972685 440.73154,18.6859022 440.889885,18.8044123 C441.207572,18.9597702 441.487416,19.3850127 441.213547,19.7375556 L429.901302,27.4785611 L430.412191,27.4865282 C430.651203,27.5243718 431.045573,27.4954911 431.733729,27.9287006 C432.755506,28.5740334 432.793349,29.1526419 433.163818,30.2799825 L436.871494,41.2934625 C436.88942,41.4219316 437.169263,42.3401365 437.41425,42.70463 C437.732933,43.1358478 437.986884,43.5660696 438.464908,43.5660696 L430.681079,43.5660696 C430.152265,43.5660696 429.601541,43.2503744 429.461122,43.1358478 C429.137459,42.8639715 428.936291,42.3451159 428.804834,41.9208694 L425.785314,33.4548604 C425.478582,32.7208939 425.312269,32.5107624 424.95873,32.0446888 C424.837233,31.8833556 424.332319,31.1483933 423.655118,31.1035785 L421.732067,31.1035785 L418.552209,41.607166 C418.39486,42.2116675 418.342078,42.3730007 418.39486,42.70463 C418.449633,43.0731071 418.636859,43.5660696 419.167666,43.5660696 L411.815055,43.5660696 C411.287236,43.5660696 410.552274,43.3649011 410.33318,43.1358478 C410.044373,42.8380785 409.962711,42.241544 410.172842,41.607166 L418.021403,13.4286311 C418.09709,12.7763271 418.062234,12.5532491 417.849115,12.2953152 C417.638984,12.0443524 417.44877,11.8222703 416.813396,11.8222703 Z M50.1783101,17.0806183 L50.9051684,17.0715201 C50.994456,17.0704025 51.1614253,17.0687413 51.3962146,17.0670848 C53.3849739,17.0530539 55.6558298,17.0676908 57.8136989,17.1332862 C58.2750546,17.1473106 58.72039,17.1634843 59.1481927,17.1819289 C60.9523953,17.2602085 62.5525796,17.813706 63.9305772,18.6856399 C64.8317785,19.2558788 65.4580213,19.8342634 65.7495955,20.1889176 C65.8731692,20.3150305 66.0576188,20.504261 66.2426538,20.6960795 C66.4039494,20.8633701 66.5261915,20.9916279 66.612838,21.0847915 C67.300135,21.8210658 67.7784031,22.6736382 68.0674082,23.6117485 C68.5116023,25.0536023 68.4860734,26.5570177 68.182907,27.9752801 C68.0995566,28.3652067 68.0139238,28.660419 67.9661067,28.7923328 L65.3017213,37.6765167 C65.2705026,37.8148145 65.2091125,38.061578 65.115595,38.4014943 C64.9616508,38.9610493 64.771706,39.5827809 64.5437173,40.2514395 C63.8922825,42.1620056 63.0644252,44.0732654 62.0410872,45.8641268 C61.9935033,45.9471738 61.9935033,45.9471738 61.9452368,46.0304955 C61.0112708,47.6372844 59.5173849,48.7581508 57.6436064,49.4745149 C56.5915202,49.8767378 55.4765846,50.1296467 54.3558716,50.2652919 C53.6417393,50.3517268 53.0445222,50.3782303 52.6225987,50.3724425 C52.5947603,50.3719898 39.8192171,50.432258 39.8192171,50.432258 L50.1783101,17.0806183 Z M32.2577196,0.658628956 L32.9921757,0.652340605 C33.0798827,0.65158973 33.0798827,0.65158973 33.4660034,0.6485976 C33.8393562,0.645793126 34.2493195,0.642988858 34.6832453,0.640371537 C35.5295336,0.635266961 36.361197,0.631507511 37.1401338,0.629657454 C38.9738542,0.625302174 40.3039583,0.631841288 40.9394244,0.652894317 C43.609531,0.744684351 46.851657,2.24523667 49.1669973,5.1478075 C49.7224229,5.8443212 50.1252887,6.61378169 50.3872974,7.43982621 C50.9147636,9.10278842 50.8488456,10.8413128 50.4290035,12.4894148 C50.3044191,12.9784744 50.1770703,13.3486107 50.116019,13.4841984 L38.5340569,50.3720727 L37.7999018,50.3720727 L31.2317826,50.3720637 C25.0488115,50.3457951 21.6844195,47.8373381 20.7556308,43.7157968 C20.3704996,42.0067599 20.4473959,40.2137893 20.8036813,38.5005015 C20.9171352,37.9549301 21.0325453,37.5422578 21.105217,37.3286749 L32.2577196,0.658628956 Z M23.0093171,37.939792 C22.9517455,38.1101568 22.857746,38.4462716 22.7617903,38.9076986 C22.4587286,40.3650463 22.3934892,41.8862177 22.7067041,43.2761228 C23.4237348,46.4579789 25.9608842,48.349652 31.2360311,48.3720727 L37.0658305,48.3720727 L48.239038,12.7996073 C48.2958176,12.6635096 48.3919769,12.3840248 48.4909006,11.995697 C48.8264919,10.6783238 48.8787919,9.29896371 48.4808974,8.0445072 C48.291337,7.44687318 48.0027197,6.89562361 47.6034014,6.39487118 C45.6684178,3.9691254 42.97855,2.72417459 40.8719571,2.65175565 C40.2709358,2.63184451 38.9519205,2.62535991 37.144884,2.62965181 C36.3686274,2.6314955 35.5393261,2.63524428 34.6953085,2.64033516 C34.3619517,2.64234587 34.0427704,2.64446719 33.7435523,2.64661384 L23.0093171,37.939792 Z M42.5386366,48.4195013 L52.6372753,48.3724262 C52.9875765,48.377261 53.4969416,48.3546562 54.1155559,48.2797823 C55.0847538,48.1624757 56.0439949,47.9448842 56.9294016,47.6063844 C58.4080292,47.0410904 59.5367563,46.1942036 60.215975,45.0256803 C60.2605162,44.9487888 60.2605162,44.9487888 60.3045962,44.8718572 C61.2591538,43.2013629 62.0376651,41.4040273 62.6507288,39.6059981 C62.8653146,38.9766484 63.0435982,38.3930864 63.187243,37.8709678 C63.272279,37.5618799 63.3262175,37.345069 63.3683394,37.1693065 L66.0652379,28.1723627 C66.1008469,28.0715164 66.1628279,27.857842 66.2270914,27.5572068 C66.464981,26.4443199 66.4849525,25.2681865 66.156054,24.2005823 C65.9535948,23.5433996 65.6248017,22.9572852 65.1495899,22.448207 C65.0717058,22.364467 64.9565049,22.2435968 64.8147732,22.0965946 C64.6225512,21.8973225 64.4413005,21.7113739 64.2673354,21.529248 C64.2232808,21.4764197 64.1131024,21.3592784 63.9395676,21.1990054 C63.6377061,20.9202125 63.2772035,20.6389662 62.8611717,20.3757203 C61.7632925,19.6810326 60.4947017,19.242232 59.0617714,19.1800609 C58.6430083,19.162006 58.2060934,19.1461382 57.7529306,19.1323628 C55.7124336,19.0703353 53.5623001,19.0544519 51.656067,19.0654589 L42.5386366,48.4195013 Z M6.87203361,2.70731171 L7.00829229,0.717040505 L30.9771314,0.648419358 L20.6213805,34.2815766 L4.85108304,34.2815766 C2.63894541,34.2815766 1.24048062,33.3070715 0.679146911,31.7216633 C0.418665612,30.9859705 0.37294267,30.2376448 0.445533023,29.5587704 C0.457107791,29.4505216 0.469628112,29.3667193 0.480024135,29.3109561 L0.510863799,29.188824 C0.526069313,29.1414149 0.526069313,29.1414149 0.598361953,28.9159385 C0.697295119,28.6073238 0.697295119,28.6073238 0.845703224,28.1442237 C1.11208261,27.312922 1.4089083,26.3860839 1.72856783,25.3872922 C2.6418718,22.5336296 3.55517174,19.6751139 4.40755779,17.0004395 L4.4452498,16.8821621 C6.4700951,10.5279409 7.82567758,6.2325104 8.19619216,4.97533578 C8.50832077,3.91775469 8.27327912,3.37510891 7.65426483,3.00336251 C7.35430722,2.82322424 7.04026652,2.73094638 6.87203361,2.70731171 Z M10.1145022,5.54109761 C9.73778016,6.8193347 8.38327276,11.1113586 6.35083711,17.4893993 L6.31313058,17.6077223 C5.46046618,20.2832701 4.54692635,23.1425366 3.63339056,25.9969236 C3.31365616,26.9959492 3.01675893,27.9230107 2.75031005,28.7545292 C2.60185669,29.2177705 2.60185669,29.2177705 2.50288222,29.5265141 C2.46885489,29.6326433 2.45083509,29.688846 2.43970556,29.7235567 C2.3906712,30.1784688 2.41908791,30.6435516 2.56446311,31.0541434 C2.84122794,31.8358268 3.4809018,32.2815766 4.85108304,32.2815766 L19.1445287,32.2815766 L28.2662752,2.65618855 L10.0148549,2.70844112 C10.3809829,3.47544401 10.4429406,4.42825452 10.1145022,5.54109761 Z" id="nordfynsbank" fill="#FFFFFF" fill-rule="nonzero"></path>
    </g>
</svg>