<?xml version="1.0" encoding="UTF-8" standalone="no"?>
<svg width="209px" height="37px" viewBox="0 0 209 37" version="1.1" xmlns="http://www.w3.org/2000/svg" xmlns:xlink="http://www.w3.org/1999/xlink">
    <defs></defs>
    <g id="Page-1" stroke="none" stroke-width="1" fill="none" fill-rule="evenodd">
        <g id="Group" fill="white">
            <path d="M21.2343,20.6296 C21.2343,12.4556 19.7243,6.2366 15.5033,6.2366 C11.3283,6.2366 10.2173,13.1226 10.2173,19.2966 C10.2173,27.4706 11.7273,33.6896 15.9483,33.6896 C20.1233,33.6896 21.2343,26.8046 21.2343,20.6296 M0.0003,20.5856 C0.0003,10.3676 6.7083,3.9266 16.1703,3.9266 C26.2543,3.9266 31.4513,11.0346 31.4513,19.3416 C31.4513,29.5586 24.7433,35.9996 15.2813,35.9996 C5.1973,35.9996 0.0003,28.8926 0.0003,20.5856" id="Fill-1"></path>
            <path d="M51.4863,7.0361 C50.9973,4.9931 49.7533,3.3931 47.4883,3.3931 C45.6223,3.3931 44.8673,4.8151 44.8673,7.5691 L44.8673,11.4341 L50.9083,11.4341 L50.9083,10.8571 C50.9083,9.4351 51.1313,8.1471 51.4863,7.0361 L51.4863,7.0361 Z M35.7163,10.9011 C35.7163,3.8381 40.7363,1.3061 46.5553,1.3061 C49.4423,1.3061 51.7973,2.0161 53.6633,3.6151 C55.7063,1.6611 58.6823,0.7721 61.9253,0.7721 C67.0343,0.7721 69.3003,2.5051 69.3003,5.3481 C69.3003,6.6361 68.5893,7.7471 67.5673,8.2351 L62.9923,8.2351 C63.1253,7.6141 63.2143,6.8581 63.2143,6.0591 C63.2143,4.5041 63.0803,2.9491 61.7483,2.9491 C60.5043,2.9491 60.0603,3.9261 60.0603,5.6141 L60.0603,11.4341 L65.1243,11.4341 L65.1243,13.9661 L60.0603,13.9661 L60.0603,31.2471 C60.0603,33.2011 61.0373,33.3341 63.5253,33.6901 L63.5253,35.5561 L48.6873,35.5561 L48.6873,33.6901 C50.3313,33.5571 50.9083,33.4231 50.9083,32.0911 L50.9083,13.9661 L44.8673,13.9661 L44.8673,32.0911 C44.8673,33.4231 45.4443,33.5571 47.0883,33.6901 L47.0883,35.5561 L33.3613,35.5561 L33.3613,33.6901 C35.0053,33.5571 35.7163,33.4231 35.7163,32.0911 L35.7163,13.9661 L32.5623,13.9661 L32.5623,11.9671 L35.7163,11.2121 L35.7163,10.9011 Z" id="Fill-3"></path>
            <path d="M66.279,33.7345 L66.013,27.7375 L68.278,27.7375 C69.078,31.2915 71.477,34.0005 74.897,34.0005 C76.896,34.0005 78.495,33.0685 78.495,31.2025 C78.495,29.0255 76.763,28.3595 73.92,27.5155 C68.767,26.0045 65.968,23.7835 65.968,19.1195 C65.968,13.8325 69.966,10.9895 75.519,10.9895 C78.584,10.9895 81.427,11.7895 83.338,13.0335 L83.338,18.3645 L81.249,18.3645 C80.805,15.5655 78.806,12.9885 75.741,12.9885 C73.964,12.9885 72.72,13.9215 72.72,15.5215 C72.72,17.2975 74.009,17.9645 76.718,18.8525 C82.271,20.6735 85.248,22.4955 85.248,27.6045 C85.248,32.9795 81.205,36.0005 74.986,36.0005 C71.121,36.0005 68.278,35.1115 66.279,33.7345" id="Fill-5"></path>
            <path d="M102.0392,29.9139 C104.5712,29.9139 106.4372,29.1149 107.8142,27.1599 L108.8802,27.8259 C107.4142,33.5569 103.6382,35.9999 98.4852,35.9999 C92.1772,35.9999 87.2462,31.6019 87.2462,24.2279 C87.2462,16.6319 92.2212,10.9899 99.7732,10.9899 C104.3052,10.9899 108.2142,12.6779 108.2142,16.8089 C108.2142,18.6309 107.1482,19.7409 106.1262,20.1849 L101.5502,20.1849 C101.6832,19.1189 101.7282,18.2749 101.7282,17.5199 C101.7282,14.8549 101.0172,13.1219 99.0632,13.1219 C96.5752,13.1219 95.1532,16.4539 95.1532,20.8959 C95.1532,26.4939 97.6412,29.9139 102.0392,29.9139" id="Fill-8"></path>
            <path d="M121.5851,31.2468 C121.5851,33.2018 122.5621,33.3348 125.0501,33.6898 L125.0501,35.5558 L110.0791,35.5558 L110.0791,33.6898 C111.7231,33.5568 112.4341,33.4238 112.4341,32.0908 L112.4341,16.5428 L110.0791,15.0328 L110.0791,13.6548 L119.9861,10.9898 L121.7631,10.9898 L121.5851,17.9198 C123.2731,12.5888 124.9171,10.9898 127.7601,10.9898 C128.8701,10.9898 129.6261,11.3008 130.1141,11.7448 L130.1141,18.5418 L128.9591,18.5418 C126.1161,18.5418 123.4951,18.6308 121.5851,19.7858 L121.5851,31.2468 Z" id="Fill-10"></path>
            <path d="M139.3097,19.8745 L145.5737,19.8745 C145.5737,15.4765 144.8627,12.9445 142.7307,12.9445 C140.5097,12.9445 139.4877,15.6985 139.3097,19.8745 M153.3477,20.9405 L153.3477,22.0515 L139.2657,22.0515 C139.2657,26.9375 142.0197,30.0475 145.9287,30.0475 C148.7277,30.0475 150.8597,29.1145 152.5477,26.9375 L153.4807,27.5155 C152.2367,32.6685 148.7277,36.0005 142.9077,36.0005 C136.2897,36.0005 131.0027,31.7795 131.0027,24.0055 C131.0027,15.9655 136.7327,10.9895 143.3077,10.9895 C149.9717,10.9895 153.3477,15.1215 153.3477,20.9405" id="Fill-12"></path>
            <path d="M163.5641,19.8745 L169.8281,19.8745 C169.8281,15.4765 169.1171,12.9445 166.9851,12.9445 C164.7641,12.9445 163.7421,15.6985 163.5641,19.8745 M177.6021,20.9405 L177.6021,22.0515 L163.5201,22.0515 C163.5201,26.9375 166.2741,30.0475 170.1831,30.0475 C172.9821,30.0475 175.1141,29.1145 176.8021,26.9375 L177.7351,27.5155 C176.4911,32.6685 172.9821,36.0005 167.1621,36.0005 C160.5441,36.0005 155.2571,31.7795 155.2571,24.0055 C155.2571,15.9655 160.9871,10.9895 167.5621,10.9895 C174.2261,10.9895 177.6021,15.1215 177.6021,20.9405" id="Fill-15"></path>
            <path d="M196.7033,19.0748 C196.7033,17.4308 196.1703,16.3208 193.9493,16.3208 C192.7053,16.3208 191.6833,16.5428 190.6613,16.8978 L190.6613,32.0908 C190.6613,33.4238 191.2393,33.5568 192.8833,33.6898 L192.8833,35.5558 L179.1563,35.5558 L179.1563,33.6898 C180.8003,33.5568 181.5103,33.4238 181.5103,32.0908 L181.5103,16.5428 L179.1563,15.0328 L179.1563,13.6548 L189.0623,10.9898 L190.8393,10.9898 L190.6613,15.4768 C192.2613,13.3888 194.7933,10.9898 198.9693,10.9898 C203.2773,10.9898 205.8543,13.3888 205.8543,18.2748 L205.8543,32.0908 C205.8543,33.4238 206.5653,33.5568 208.2093,33.6898 L208.2093,35.5558 L194.4823,35.5558 L194.4823,33.6898 C196.1253,33.5568 196.7033,33.4238 196.7033,32.0908 L196.7033,19.0748 Z" id="Fill-18"></path>
        </g>
    </g>
</svg>
