<svg id="Layer_1" data-name="Layer 1" xmlns="http://www.w3.org/2000/svg" viewBox="0 0 360 332.83"><defs><style>.cls-1{fill:white;}</style></defs><title>golion-z-sourcefile-algae</title><path class="cls-1" d="M212.37,276.44a10.15,10.15,0,0,0,7.21-2.8l3.58,3.86c-2.36,2.43-5.64,4.23-10.73,4.23-8.73,0-14.36-5.79-14.36-13.63a13.36,13.36,0,0,1,13.57-13.63c8.67,0,13.58,6.59,13.15,15.74H204.31c0.73,3.8,3.39,6.22,8.06,6.22m6.24-10.58c-0.55-3.55-2.67-6.16-6.91-6.16a7,7,0,0,0-7.39,6.16h14.3Z"/><polygon class="cls-1" points="77.87 276.16 93.64 260.14 78.24 260.14 78.24 255.12 100.94 255.12 100.94 260.25 85.18 276.26 101.15 276.26 101.15 281.29 77.87 281.29 77.87 276.16"/><path class="cls-1" d="M118.85,276.44a10.15,10.15,0,0,0,7.21-2.8l3.58,3.86c-2.36,2.43-5.64,4.23-10.73,4.23-8.73,0-14.36-5.79-14.36-13.63a13.36,13.36,0,0,1,13.57-13.63c8.67,0,13.58,6.59,13.15,15.74H110.79c0.73,3.8,3.39,6.22,8.06,6.22m6.24-10.58c-0.55-3.55-2.67-6.16-6.91-6.16a7,7,0,0,0-7.39,6.16h14.3Z"/><path class="cls-1" d="M165.32,268.12c0-8.38,6.25-13.61,13.14-13.61a11.33,11.33,0,0,1,8.72,3.93V243h5.57v38.21h-5.57v-3.61a11.19,11.19,0,0,1-8.78,4.13,13.19,13.19,0,0,1-13.09-13.61m22.18-.05a8.31,8.31,0,1,0-8.3,8.53,8.28,8.28,0,0,0,8.3-8.53"/><path class="cls-1" d="M228.42,275.66l5-2.62a7.49,7.49,0,0,0,6.73,3.82c3.15,0,4.78-1.62,4.78-3.45,0-2.09-3-2.57-6.36-3.24-4.47-.94-9.09-2.41-9.09-7.8,0-4.14,3.94-8,10.14-7.9,4.89,0,8.51,1.94,10.56,5.08l-4.68,2.57a6.79,6.79,0,0,0-5.89-3c-3,0-4.52,1.47-4.52,3.14,0,1.88,2.42,2.41,6.2,3.24,4.31,0.94,9.2,2.36,9.2,7.8,0,3.61-3.15,8.48-10.62,8.43-5.46,0-9.3-2.2-11.51-6.07"/><polygon class="cls-1" points="265.67 269.59 261.26 274.4 261.26 281.21 255.69 281.21 255.69 243 261.26 243 261.26 268.01 273.08 255.03 279.87 255.03 269.62 266.24 280.13 281.21 273.82 281.21 265.67 269.59"/><path class="cls-1" d="M148.48,254.51c-6.62,0-12.17,4.29-12.17,11.41v15.29H142V266.63c0-4.29,2.47-6.86,6.67-6.86s6.31,2.57,6.31,6.86v14.58h5.68V265.92c0-7.12-5.55-11.41-12.17-11.41"/><polygon class="cls-1" points="171.3 93.22 171.3 206.08 77.81 206.08 171.3 93.22"/><path class="cls-1" d="M171.3,52.71a46.74,46.74,0,1,1-93.48,0H171.3Z"/><path class="cls-1" d="M186.7,206.08a46.74,46.74,0,1,1,93.48,0H186.7Z"/><polygon class="cls-1" points="186.7 165.57 186.7 52.71 280.18 52.71 186.7 165.57"/></svg>
